<svg width="271" height="176" viewBox="0 0 271 176" fill="none" xmlns="http://www.w3.org/2000/svg">
<g filter="url(#filter0_d_372_415)">
<path d="M36.7521 22.743L42.1521 16.0574L45.9321 17.2243L35.499 29.3367C34.1009 30.9431 32.3983 31.4365 30.3911 30.8169L27.4902 29.9214L28.4521 26.8243L30.6058 27.4892C31.4995 27.7651 32.2495 27.5473 32.8558 26.8358L33.4887 26.1165C33.6302 25.9194 33.6938 25.7144 33.6797 25.5014L32.3506 13.0316L36.1086 14.1917L36.7521 22.743ZM60.2918 25.8215L61.472 22.0216L65.3179 23.2088L61.8046 34.5208L57.9587 33.3335L59.3367 28.8966L55.0513 27.5737L53.6733 32.0106L49.8273 30.8233L53.3407 19.5114L57.1866 20.6986L56.0064 24.4986L60.2918 25.8215ZM75.604 29.2727L76.4227 26.6369L80.2686 27.8242L76.7553 39.1361L72.9093 37.9489L73.7962 35.0934L73.6643 35.0527C73.0136 35.9591 72.2281 36.5752 71.3081 36.9009C70.3881 37.2267 69.4153 37.2313 68.3897 36.9147C67.0125 36.4896 66.0408 35.6119 65.4745 34.2817C64.9229 32.956 64.9404 31.3486 65.5271 29.4596C66.1138 27.5706 67.0228 26.2465 68.2541 25.4873C69.4899 24.7134 70.8404 24.5526 72.3055 25.0049C73.2285 25.2898 73.9744 25.8089 74.5432 26.5622C75.1121 27.3155 75.4217 28.2055 75.4722 29.232L75.604 29.2727ZM74.4375 32.3307L74.5194 32.0671C74.8104 31.1299 74.808 30.3108 74.512 29.6096C74.2352 28.8983 73.7231 28.4273 72.9759 28.1966C72.2434 27.9705 71.549 28.061 70.8926 28.4682C70.2363 28.8754 69.748 29.5431 69.4276 30.4712L69.3253 30.8007C69.0635 31.7469 69.0857 32.5802 69.3918 33.3005C69.7171 34.0107 70.2387 34.4766 70.9566 34.6983C71.6892 34.9244 72.3786 34.8243 73.0248 34.3979C73.6755 33.9569 74.1464 33.2679 74.4375 32.3307ZM80.7404 38.9221C79.9827 37.4847 79.8835 35.8654 80.4429 34.0642C81.0023 32.2631 81.9997 30.9904 83.4351 30.246C84.875 29.4869 86.4887 29.3833 88.2761 29.9351C89.8731 30.4281 91.0406 31.2699 91.7787 32.4606C92.5213 33.6367 92.7425 34.9406 92.4423 36.3724L88.5963 35.1851C88.6777 34.6647 88.5954 34.206 88.3494 33.8091C88.1034 33.4122 87.7459 33.1414 87.2771 32.9966C86.6618 32.8067 86.084 32.9092 85.5439 33.3041C85.023 33.6889 84.616 34.3014 84.3229 35.1417L84.2479 35.3833C84.0134 36.2416 83.9997 36.9836 84.2068 37.6092C84.4331 38.2247 84.8539 38.6274 85.4693 38.8174C85.9381 38.9621 86.3792 38.9378 86.7925 38.7444C87.2058 38.551 87.5433 38.2139 87.805 37.7331L91.6509 38.9203C91.087 40.2708 90.1631 41.2292 88.8793 41.7957C87.5955 42.3623 86.1551 42.399 84.5582 41.906C82.7854 41.3588 81.5128 40.3641 80.7404 38.9221ZM108.85 42.4243L108.815 42.5342C109.497 42.8729 109.976 43.3737 110.251 44.0366C110.542 44.704 110.576 45.3964 110.353 46.1139C110.071 47.0218 109.495 47.6623 108.624 48.0355C107.773 48.3985 106.761 48.3991 105.589 48.0373L98.0729 45.7171L101.586 34.4051L109.19 36.7525C110.143 37.0465 110.822 37.5452 111.23 38.2488C111.657 38.9422 111.748 39.6843 111.502 40.475C111.311 41.0901 110.977 41.5725 110.499 41.9224C110.021 42.2724 109.471 42.4397 108.85 42.4243ZM107.506 39.771C107.602 39.4635 107.56 39.2099 107.381 39.0103C107.207 38.796 106.863 38.6097 106.35 38.4514L104.702 37.9426L104.122 39.8096L105.793 40.3252C106.73 40.6147 107.301 40.43 107.506 39.771ZM102.649 44.5541L104.649 45.1714C105.205 45.3433 105.643 45.3821 105.961 45.2878C106.284 45.1788 106.511 44.912 106.643 44.4874C106.893 43.682 106.484 43.1142 105.414 42.784L103.392 42.1599L102.649 44.5541ZM127.153 42.2978L123.64 53.6098L119.794 52.4225L121.861 45.7671L115.641 51.1403L111.487 49.858L115 38.5461L118.824 39.7266L116.757 46.3819L122.978 41.0088L127.153 42.2978ZM142.072 46.9032C143.581 47.3691 144.629 48.2863 145.215 49.6548C145.816 51.0279 145.846 52.5857 145.305 54.3283C144.768 56.0562 143.768 57.2878 142.303 58.0232C140.91 58.7327 139.401 58.8364 137.775 58.3343C136.031 57.7961 134.773 56.886 133.999 55.604C133.165 54.2555 132.938 52.4282 133.317 50.122C133.541 48.7792 133.947 47.5001 134.533 46.285C135.119 45.0698 135.824 44.0919 136.648 43.3514C138.224 41.8962 140.256 41.2718 142.745 41.4785C143.357 41.5231 144.365 41.6898 145.769 41.9786C147.187 42.272 148.257 42.3937 148.979 42.3438L147.969 45.5946C147.203 45.631 146.15 45.5064 144.81 45.2211C143.484 44.9402 142.603 44.7804 142.165 44.7416C140.526 44.5404 139.185 44.9288 138.142 45.9069C137.291 46.7353 136.652 47.8619 136.226 49.2868L136.344 49.3715C137.598 46.9345 139.508 46.1117 142.072 46.9032ZM138.576 55.2118C139.939 55.6324 140.89 54.9714 141.432 53.2289C141.705 52.3503 141.73 51.5959 141.508 50.9658C141.291 50.321 140.853 49.8969 140.194 49.6934C139.534 49.4898 138.927 49.5833 138.373 49.9737C137.837 50.354 137.44 50.9614 137.18 51.7961C136.917 52.6454 136.907 53.3727 137.153 53.9781C137.398 54.5834 137.873 54.9947 138.576 55.2118ZM152.666 58.5264L158.066 51.8408L161.846 53.0077L151.413 65.1201C150.015 66.7265 148.312 67.2199 146.305 66.6003L143.404 65.7048L144.366 62.6077L146.52 63.2726C147.413 63.5485 148.163 63.3307 148.77 62.6192L149.403 61.8999C149.544 61.7028 149.608 61.4978 149.594 61.2848L148.264 48.815L152.022 49.9751L152.666 58.5264ZM175.273 57.1526L172.708 65.4114L174.686 66.022L172.83 71.9965L169.555 70.9856L170.463 68.0643L161.804 65.3913L160.897 68.3126L157.622 67.3017L159.485 61.3053L159.726 61.3799C160.957 61.7599 161.725 61.4593 162.029 60.4782L164.131 53.7129L175.273 57.1526ZM163.547 62.415L163.506 62.5468L168.891 64.209L170.494 59.0472L166.999 57.9685L166.324 60.1431C166.074 60.9484 165.734 61.5255 165.305 61.8744C164.894 62.2131 164.309 62.3933 163.547 62.415ZM188.191 69.397C187.827 70.5685 187.175 71.3779 186.233 71.8254C185.291 72.2728 184.176 72.2975 182.886 71.8995L175.678 69.6742L179.191 58.3623L183.037 59.5495L181.85 63.3714L185.125 64.3823C186.473 64.7984 187.413 65.4417 187.945 66.3122C188.482 67.168 188.564 68.1962 188.191 69.397ZM180.956 66.2489L180.308 68.3355L182.638 69.0547C183.517 69.326 184.063 69.1176 184.277 68.4294C184.495 67.7265 184.172 67.2416 183.308 66.9748L180.956 66.2489ZM190.92 69.0117L191.711 66.4638L199.447 68.8519L198.656 71.3998L190.92 69.0117ZM209.285 73.5499L213.399 81.319L208.476 79.7993L205.294 73.762L203.861 78.3746L200.015 77.1874L203.529 65.8754L207.375 67.0627L206.126 71.0823L211.594 68.3653L216.627 69.9189L209.285 73.5499ZM219.507 83.5656C217.734 83.0183 216.476 82.0282 215.733 80.5953C214.99 79.1624 214.898 77.5453 215.458 75.7442C216.017 73.9431 217.007 72.668 218.428 71.9191C219.853 71.1556 221.452 71.0474 223.225 71.5947C224.998 72.142 226.251 73.1225 226.984 74.5363C227.731 75.9546 227.823 77.5716 227.259 79.3874C226.7 81.1885 225.707 82.4708 224.282 83.2344C222.857 83.998 221.265 84.1084 219.507 83.5656ZM219.2 79.2824C219.426 79.8978 219.847 80.3006 220.462 80.4905C221.077 80.6805 221.645 80.5831 222.166 80.1983C222.687 79.8135 223.092 79.184 223.379 78.3099L223.447 78.0903C223.706 77.2072 223.727 76.4675 223.51 75.8712C223.299 75.2602 222.885 74.8598 222.27 74.6698C221.655 74.4798 221.079 74.575 220.543 74.9553C220.027 75.3254 219.625 75.9475 219.338 76.8216L219.269 77.0413C219.011 77.9244 218.988 78.6714 219.2 79.2824ZM244.557 78.5411L241.044 89.8531L237.198 88.6658L239.756 80.429L235.712 79.1806L234.566 82.8708C234.107 84.3497 233.361 85.3552 232.329 85.887C231.311 86.4234 230.07 86.4654 228.605 86.0132L226.627 85.4026L227.582 82.3275L228.813 82.7074C229.794 83.0104 230.438 82.6714 230.742 81.6903L232.843 74.9251L244.557 78.5411ZM259.099 83.0303L255.586 94.3423L251.74 93.1551L253.807 86.4997L247.586 91.8728L243.433 90.5906L246.946 79.2786L250.77 80.4591L248.703 87.1145L254.923 81.7413L259.099 83.0303ZM39.5277 39.3182L36.0144 50.6301L32.1904 49.4497L34.3189 42.5966L31.4382 45.1254L29.8779 44.6437L28.9346 40.9344L26.8062 47.7875L22.9822 46.607L26.4955 35.2951L30.6272 36.5705L31.7674 41.3516L35.3741 38.0359L39.5277 39.3182ZM43.7824 53.3893C42.0096 52.842 40.7517 51.8519 40.0086 50.4189C39.2656 48.986 39.1737 47.369 39.7331 45.5678C40.2925 43.7667 41.2826 42.4917 42.7033 41.7428C44.1286 40.9792 45.7276 40.8711 47.5004 41.4183C49.2732 41.9656 50.5261 42.9461 51.2591 44.3599C52.0067 45.7782 52.0985 47.3952 51.5346 49.211C50.9752 51.0121 49.9828 52.2945 48.5575 53.058C47.1323 53.8216 45.5406 53.932 43.7824 53.3893ZM43.475 49.106C43.7013 49.7215 44.1222 50.1242 44.7375 50.3142C45.3529 50.5041 45.921 50.4067 46.4419 50.0219C46.9628 49.6371 47.367 49.0077 47.6546 48.1336L47.7228 47.9139C47.981 47.0308 48.002 46.2911 47.7858 45.6948C47.5742 45.0839 47.1607 44.6834 46.5453 44.4934C45.93 44.3035 45.3545 44.3986 44.819 44.7789C44.3026 45.1491 43.9007 45.7712 43.6131 46.6453L43.5449 46.8649C43.2867 47.748 43.2634 48.4951 43.475 49.106ZM68.6087 54.1931L72.4807 61.8875L67.6458 60.395L64.646 54.3899L63.2065 59.0245L59.3826 57.8441L60.822 53.2095L54.9433 56.4736L50.1084 54.9811L57.6575 50.8364L53.9075 43.7573L58.8522 45.2838L61.6407 50.5737L62.8959 46.5321L66.7198 47.7126L65.4646 51.7541L70.7636 48.9609L75.7083 50.4874L68.6087 54.1931ZM86.1543 59.8743L86.0588 60.1818L78.301 57.7869C78.0655 58.5968 78.0632 59.3022 78.294 59.903C78.5294 60.4892 78.9548 60.8773 79.5701 61.0672C80.039 61.212 80.4732 61.2096 80.8729 61.0602C81.2917 60.9006 81.6014 60.6271 81.802 60.2398L85.6479 61.427C85.0865 62.6659 84.1685 63.5539 82.8938 64.0911C81.6383 64.6183 80.2267 64.6398 78.659 64.1559C76.8862 63.6086 75.621 62.6163 74.8632 61.1788C74.1055 59.7413 74.0063 58.122 74.5658 56.3209C75.1252 54.5198 76.1152 53.2447 77.536 52.4958C78.9759 51.7368 80.5896 51.6332 82.377 52.185C84.1058 52.7187 85.2951 53.6715 85.9447 55.0435C86.6089 56.42 86.6788 58.0303 86.1543 59.8743ZM81.378 55.2465C80.8652 55.0882 80.3711 55.1282 79.8956 55.3666C79.4202 55.605 79.0357 56.0158 78.7421 56.5992L82.5221 57.7661C82.7263 56.3849 82.3449 55.545 81.378 55.2465ZM99.9144 57.9599L98.9593 61.035L95.3771 59.9292L92.8188 68.1661L88.9949 66.9856L91.5532 58.7487L87.971 57.6429L88.926 54.5678L99.9144 57.9599ZM110.899 67.5133L110.804 67.8208L103.046 65.4259C102.811 66.2358 102.808 66.9412 103.039 67.542C103.275 68.1282 103.7 68.5163 104.315 68.7062C104.784 68.851 105.218 68.8486 105.618 68.6992C106.037 68.5396 106.347 68.2662 106.547 67.8788L110.393 69.066C109.832 70.3049 108.914 71.1929 107.639 71.7302C106.383 72.2573 104.972 72.2788 103.404 71.7949C101.631 71.2476 100.366 70.2553 99.6084 68.8178C98.8507 67.3803 98.7515 65.761 99.3109 63.9599C99.8703 62.1588 100.86 60.8838 102.281 60.1348C103.721 59.3758 105.335 59.2722 107.122 59.824C108.851 60.3577 110.04 61.3105 110.69 62.6825C111.354 64.059 111.424 65.6693 110.899 67.5133ZM106.123 62.8855C105.61 62.7272 105.116 62.7672 104.641 63.0056C104.165 63.244 103.781 63.6548 103.487 64.2382L107.267 65.4051C107.472 64.0239 107.09 63.184 106.123 62.8855ZM127.696 72.3132L127.661 72.423C128.343 72.7618 128.822 73.2626 129.097 73.9255C129.388 74.5928 129.422 75.2853 129.199 76.0028C128.917 76.9107 128.341 77.5512 127.47 77.9244C126.619 78.2874 125.607 78.288 124.435 77.9262L116.919 75.6059L120.432 64.294L128.036 66.6414C128.989 66.9353 129.669 67.4341 130.076 68.1377C130.503 68.8311 130.594 69.5732 130.348 70.3639C130.157 70.9789 129.823 71.4614 129.345 71.8113C128.867 72.1612 128.317 72.3285 127.696 72.3132ZM126.352 69.6599C126.448 69.3524 126.406 69.0988 126.227 68.8992C126.053 68.6849 125.709 68.4986 125.197 68.3403L123.548 67.8315L122.968 69.6985L124.639 70.2141C125.576 70.5036 126.147 70.3188 126.352 69.6599ZM121.495 74.4429L123.495 75.0603C124.051 75.2322 124.489 75.271 124.807 75.1767C125.13 75.0677 125.357 74.8009 125.489 74.3762C125.74 73.5709 125.33 73.0031 124.26 72.6729L122.238 72.0488L121.495 74.4429ZM136.012 76.3489L136.667 74.2402L137.26 74.4234C137.641 74.541 137.966 74.5289 138.235 74.3873C138.523 74.2354 138.728 73.9619 138.851 73.5665C138.969 73.1858 138.96 72.8539 138.823 72.5709C138.686 72.288 138.434 72.09 138.068 71.9769C137.702 71.8638 137.384 71.8781 137.116 72.0198C136.866 72.1514 136.687 72.3929 136.577 72.7443L136.55 72.8322L132.902 71.706L132.963 71.5083C133.295 70.4393 133.97 69.7409 134.987 69.413C136.009 69.0704 137.274 69.132 138.783 69.5979C140.277 70.0592 141.366 70.7162 142.048 71.5688C142.735 72.4067 142.922 73.3309 142.608 74.3413C142.422 74.9416 142.09 75.4168 141.612 75.7667C141.153 76.1065 140.603 76.2738 139.962 76.2686L139.935 76.3565C140.601 76.6422 141.066 77.0828 141.331 77.678C141.615 78.2631 141.65 78.8998 141.436 79.588C141.104 80.657 140.365 81.3835 139.218 81.7676C138.09 82.1416 136.787 82.1002 135.307 81.6434C133.739 81.1595 132.569 80.4292 131.797 79.4526C131.024 78.4759 130.804 77.4531 131.136 76.3842L131.204 76.1645L134.874 77.2975L134.847 77.3854C134.715 77.81 134.75 78.1898 134.951 78.5247C135.152 78.8595 135.501 79.1039 136 79.2576C136.923 79.5426 137.514 79.2677 137.773 78.433C137.914 77.9791 137.874 77.5898 137.654 77.265C137.453 76.9301 137.096 76.6835 136.583 76.5252L136.012 76.3489ZM156.714 75.4942L153.2 86.8062L149.376 85.6257L150.693 81.3865L149.396 80.9862C148.664 80.7601 148.05 81.0039 147.555 81.7178L145.684 84.4859L141.706 83.258L143.769 80.2601C144.109 79.7872 144.44 79.4721 144.761 79.3147C145.083 79.1573 145.48 79.1194 145.953 79.201L145.987 79.0912C145.343 78.6838 144.91 78.165 144.688 77.5349C144.466 76.9047 144.471 76.2163 144.703 75.4695C145.013 74.4737 145.585 73.7679 146.421 73.3518C147.261 72.9212 148.194 72.8642 149.219 73.1808L156.714 75.4942ZM149.575 78.3937L151.443 78.9703L152.139 76.7299L150.271 76.1532C149.304 75.8547 148.702 76.0862 148.466 76.8476C148.239 77.5798 148.608 78.0951 149.575 78.3937ZM169.149 79.3333L168.194 82.4084L164.612 81.3025L162.054 89.5394L158.23 88.3589L160.788 80.122L157.206 79.0162L158.161 75.9411L169.149 79.3333ZM182.978 83.6021L179.464 94.9141L175.618 93.7268L177.685 87.0715L171.465 92.4446L167.311 91.1624L170.825 79.8504L174.649 81.0309L172.581 87.6863L178.802 82.3131L182.978 83.6021ZM27.5357 62.5757L28.3543 59.9399L32.2002 61.1271L28.6869 72.4391L24.841 71.2518L25.7279 68.3964L25.596 68.3557C24.9452 69.262 24.1598 69.8781 23.2398 70.2039C22.3198 70.5297 21.3469 70.5343 20.3214 70.2177C18.9442 69.7925 17.9724 68.9148 17.4062 67.5846C16.8546 66.2589 16.8721 64.6516 17.4588 62.7626C18.0455 60.8736 18.9545 59.5495 20.1857 58.7902C21.4216 58.0163 22.772 57.8555 24.2371 58.3078C25.1602 58.5927 25.9061 59.1119 26.4749 59.8652C27.0437 60.6185 27.3534 61.5084 27.4038 62.535L27.5357 62.5757ZM26.3692 65.6336L26.451 65.37C26.7421 64.4329 26.7396 63.6137 26.4436 62.9125C26.1668 62.2012 25.6548 61.7302 24.9076 61.4996C24.1751 61.2734 23.4806 61.3639 22.8243 61.7711C22.168 62.1783 21.6797 62.846 21.3593 63.7741L21.257 64.1036C20.9952 65.0498 21.0174 65.8831 21.3235 66.6034C21.6488 67.3137 22.1704 67.7796 22.8883 68.0012C23.6209 68.2274 24.3102 68.1272 24.9564 67.7009C25.6072 67.2599 26.0781 66.5708 26.3692 65.6336ZM40.3241 69.5324L44.4378 77.3015L39.5151 75.7818L36.3326 69.7444L34.9 74.3571L31.054 73.1698L34.5674 61.8579L38.4133 63.0451L37.1649 67.0647L42.6328 64.3477L47.6655 65.9013L40.3241 69.5324ZM56.5732 71.5397L57.3918 68.9039L61.2377 70.0912L57.7244 81.4032L53.8785 80.2159L54.7654 77.3604L54.6335 77.3197C53.9827 78.2261 53.1973 78.8422 52.2773 79.168C51.3573 79.4937 50.3844 79.4983 49.3589 79.1817C47.9817 78.7566 47.0099 77.8789 46.4437 76.5487C45.8921 75.223 45.9096 73.6156 46.4963 71.7266C47.083 69.8377 47.992 68.5135 49.2232 67.7543C50.4591 66.9804 51.8095 66.8196 53.2746 67.2719C54.1977 67.5568 54.9436 68.0759 55.5124 68.8292C56.0812 69.5825 56.3909 70.4725 56.4413 71.499L56.5732 71.5397ZM55.4067 74.5977L55.4885 74.3341C55.7796 73.3969 55.7771 72.5778 55.4811 71.8766C55.2043 71.1653 54.6923 70.6943 53.9451 70.4636C53.2126 70.2375 52.5181 70.328 51.8618 70.7352C51.2055 71.1424 50.7172 71.8101 50.3968 72.7382L50.2945 73.0677C50.0327 74.0139 50.0549 74.8472 50.361 75.5675C50.6863 76.2777 51.2079 76.7437 51.9258 76.9653C52.6584 77.1914 53.3477 77.0913 53.9939 76.665C54.6447 76.224 55.1156 75.5349 55.4067 74.5977ZM75.8684 74.6078L73.3033 82.8666L75.2812 83.4772L73.4256 89.4517L70.1511 88.4408L71.0584 85.5194L62.3996 82.8464L61.4923 85.7678L58.2178 84.7569L60.0802 78.7605L60.3219 78.8351C61.5526 79.215 62.3203 78.9144 62.625 77.9333L64.7262 71.1681L75.8684 74.6078ZM64.1428 79.8702L64.1019 80.002L69.4862 81.6642L71.0893 76.5024L67.5951 75.4237L66.9197 77.5982C66.6695 78.4036 66.3297 78.9807 65.9003 79.3295C65.49 79.6683 64.9042 79.8485 64.1428 79.8702ZM89.2046 84.8869L89.1091 85.1944L81.3513 82.7996C81.1158 83.6095 81.1135 84.3148 81.3444 84.9156C81.5798 85.5018 82.0051 85.8899 82.6205 86.0799C83.0893 86.2246 83.5235 86.2222 83.9232 86.0728C84.342 85.9133 84.6517 85.6398 84.8523 85.2524L88.6983 86.4396C88.1369 87.6785 87.2188 88.5666 85.9441 89.1038C84.6886 89.6309 83.277 89.6525 81.7094 89.1685C79.9366 88.6213 78.6713 87.6289 77.9136 86.1914C77.1558 84.754 77.0567 83.1347 77.6161 81.3335C78.1755 79.5324 79.1656 78.2574 80.5863 77.5085C82.0262 76.7494 83.6399 76.6458 85.4273 77.1976C87.1562 77.7313 88.3454 78.6842 88.995 80.0562C89.6593 81.4327 89.7291 83.0429 89.2046 84.8869ZM84.4283 80.2591C83.9155 80.1008 83.4214 80.1409 82.946 80.3792C82.4705 80.6176 82.086 81.0285 81.7925 81.6118L85.5725 82.7787C85.7767 81.3975 85.3953 80.5577 84.4283 80.2591ZM106.018 83.9153L102.505 95.2273L98.6812 94.0468L100.81 87.1937L97.9289 89.7225L96.3686 89.2408L95.4253 85.5315L93.2969 92.3846L89.4729 91.2041L92.9863 79.8922L97.1179 81.1676L98.2581 85.9487L101.865 82.633L106.018 83.9153ZM108.763 82.7647L109.705 79.7335L113.55 80.9208L112.609 83.9519L108.763 82.7647ZM104.684 95.8997L108.197 84.5878L112.043 85.775L108.529 97.087L104.684 95.8997ZM122.323 92.4871L123.326 89.2582L127.15 90.4387L123.636 101.751L119.813 100.57L121.784 94.2223L121.63 94.1748C119.915 95.924 118.105 96.5046 116.2 95.9166C114.926 95.5231 114.02 94.7942 113.484 93.73C112.962 92.6702 112.91 91.4668 113.329 90.1196L114.447 86.5173L118.293 87.7046L117.591 89.967C116.986 91.9146 117.408 93.1122 118.859 93.56C120.06 93.9309 121.215 93.5732 122.323 92.4871ZM136.486 97.4851L137.666 93.6852L141.512 94.8724L137.999 106.184L134.153 104.997L135.531 100.56L131.245 99.2372L129.867 103.674L126.021 102.487L129.535 91.1749L133.381 92.3622L132.201 96.1621L136.486 97.4851ZM147.714 105.14L153.114 98.454L156.894 99.6209L146.461 111.733C145.063 113.34 143.36 113.833 141.353 113.214L138.452 112.318L139.414 109.221L141.568 109.886C142.461 110.162 143.211 109.944 143.818 109.232L144.451 108.513C144.592 108.316 144.656 108.111 144.642 107.898L143.312 95.4282L147.07 96.5883L147.714 105.14ZM20.0929 87.2375L20.0587 87.3473C20.7403 87.6861 21.2189 88.1869 21.4947 88.8497C21.7852 89.5171 21.819 90.2096 21.5961 90.9271C21.3142 91.835 20.7379 92.4755 19.8674 92.8486C19.0161 93.2117 18.0044 93.2123 16.8323 92.8505L9.31627 90.5302L12.8296 79.2182L20.4335 81.5656C21.3858 81.8596 22.0658 82.3584 22.4735 83.0619C22.9004 83.7554 22.991 84.4975 22.7454 85.2882C22.5544 85.9032 22.2199 86.3857 21.7419 86.7356C21.264 87.0855 20.7143 87.2528 20.0929 87.2375ZM18.7494 84.5842C18.8449 84.2767 18.8032 84.0231 18.6244 83.8235C18.4501 83.6092 18.1066 83.4229 17.5938 83.2646L15.9456 82.7558L15.3657 84.6228L17.0359 85.1384C17.9736 85.4279 18.5447 85.2431 18.7494 84.5842ZM13.8921 89.3672L15.892 89.9846C16.4487 90.1565 16.8863 90.1952 17.2046 90.1009C17.5274 89.992 17.7548 89.7252 17.8867 89.3005C18.1368 88.4951 17.7271 87.9274 16.6576 87.5972L14.6357 86.973L13.8921 89.3672ZM26.5895 81.4681L27.531 78.437L31.3769 79.6242L30.4354 82.6554L26.5895 81.4681ZM22.51 94.6032L26.0233 83.2912L29.8692 84.4785L26.3559 95.7905L22.51 94.6032ZM44.5587 89.0132L41.9936 97.2721L43.9715 97.8827L42.116 103.857L38.8414 102.846L39.7488 99.9249L31.09 97.2519L30.1826 100.173L26.9081 99.1624L28.7705 93.1659L29.0123 93.2406C30.243 93.6205 31.0107 93.3199 31.3154 92.3388L33.4166 85.5736L44.5587 89.0132ZM32.8332 94.2757L32.7923 94.4075L38.1765 96.0696L39.7797 90.9079L36.2854 89.8292L35.61 92.0037C35.3599 92.8091 35.0201 93.3862 34.5906 93.735C34.1804 94.0737 33.5946 94.254 32.8332 94.2757ZM60.4545 93.9204L56.9412 105.232L53.0953 104.045L55.6535 95.8082L51.3681 94.4853L48.8098 102.722L44.9639 101.535L48.4773 90.2229L60.4545 93.9204ZM66.6565 104.188L72.0565 97.502L75.8365 98.6689L65.4033 110.781C64.0053 112.388 62.3026 112.881 60.2954 112.261L57.3945 111.366L58.3564 108.269L60.5101 108.934C61.4038 109.21 62.1539 108.992 62.7602 108.28L63.393 107.561C63.5345 107.364 63.5982 107.159 63.584 106.946L62.2549 94.4762L66.0129 95.6363L66.6565 104.188ZM75.1688 109.415C74.411 107.978 74.3119 106.358 74.8713 104.557C75.4307 102.756 76.4281 101.483 77.8635 100.739C79.3034 99.9799 80.9171 99.8762 82.7045 100.428C84.3015 100.921 85.469 101.763 86.207 102.954C86.9496 104.13 87.1708 105.434 86.8706 106.865L83.0247 105.678C83.1061 105.158 83.0238 104.699 82.7777 104.302C82.5317 103.905 82.1743 103.634 81.7055 103.49C81.0901 103.3 80.5124 103.402 79.9723 103.797C79.4514 104.182 79.0444 104.794 78.7513 105.635L78.6763 105.876C78.4418 106.735 78.4281 107.477 78.6352 108.102C78.8615 108.718 79.2823 109.12 79.8976 109.31C80.3665 109.455 80.8075 109.431 81.2208 109.237C81.6341 109.044 81.9716 108.707 82.2334 108.226L86.0793 109.413C85.5154 110.764 84.5915 111.722 83.3077 112.289C82.0239 112.855 80.5835 112.892 78.9865 112.399C77.2137 111.852 75.9412 110.857 75.1688 109.415ZM100.242 106.203L99.2868 109.278L95.7046 108.172L93.1463 116.409L89.3224 115.229L91.8807 106.992L88.2985 105.886L89.2535 102.811L100.242 106.203ZM107.652 114.388L111.766 122.157L106.843 120.637L103.66 114.6L102.228 119.213L98.3818 118.025L101.895 106.713L105.741 107.901L104.493 111.92L109.961 109.203L114.993 110.757L107.652 114.388ZM120.375 120.771L125.775 114.085L129.555 115.252L119.122 127.365C117.724 128.971 116.021 129.464 114.014 128.845L111.113 127.949L112.075 124.852L114.228 125.517C115.122 125.793 115.872 125.575 116.478 124.864L117.111 124.144C117.253 123.947 117.316 123.742 117.302 123.529L115.973 111.059L119.731 112.219L120.375 120.771Z" fill="white"/>
</g>
<defs>
<filter id="filter0_d_372_415" x="0.672607" y="0.925293" width="270.323" height="174.781" filterUnits="userSpaceOnUse" color-interpolation-filters="sRGB">
<feFlood flood-opacity="0" result="BackgroundImageFix"/>
<feColorMatrix in="SourceAlpha" type="matrix" values="0 0 0 0 0 0 0 0 0 0 0 0 0 0 0 0 0 0 127 0" result="hardAlpha"/>
<feOffset dx="2" dy="2"/>
<feGaussianBlur stdDeviation="4"/>
<feComposite in2="hardAlpha" operator="out"/>
<feColorMatrix type="matrix" values="0 0 0 0 0.0540799 0 0 0 0 0.282389 0 0 0 0 0.370833 0 0 0 1 0"/>
<feBlend mode="normal" in2="BackgroundImageFix" result="effect1_dropShadow_372_415"/>
<feBlend mode="normal" in="SourceGraphic" in2="effect1_dropShadow_372_415" result="shape"/>
</filter>
</defs>
</svg>
